<svg xmlns="http://www.w3.org/2000/svg" width="64" height="64" viewBox="0 0 64 64"><path d="M39.544,16.805c-1.968-.091-2.56-.107-7.544-.107s-5.573.019-7.541.107c-5.064.232-7.421,2.629-7.653,7.653C16.717,26.427,16.7,27.016,16.7,32s.021,5.573.109,7.544c.232,5.011,2.579,7.421,7.653,7.653,1.965.088,2.557.109,7.541.109s5.576-.019,7.544-.109c5.064-.229,7.419-2.635,7.653-7.653.088-1.968.107-2.56.107-7.544s-.019-5.573-.107-7.541c-.235-5.021-2.595-7.421-7.653-7.653ZM32,41.587A9.585,9.585,0,1,1,41.587,32,9.587,9.587,0,0,1,32,41.587Zm9.965-17.309a2.24,2.24,0,1,1,2.24-2.24A2.24,2.24,0,0,1,41.965,24.277ZM38.221,32A6.221,6.221,0,1,1,32,25.779,6.221,6.221,0,0,1,38.221,32ZM32,0A32,32,0,1,0,64,32,32,32,0,0,0,32,0ZM50.555,39.7c-.307,6.787-4.085,10.547-10.856,10.859-1.992.091-2.629.112-7.7.112s-5.7-.021-7.7-.112C17.52,50.243,13.757,46.477,13.445,39.7c-.091-1.989-.112-2.627-.112-7.7s.021-5.7.112-7.7c.312-6.784,4.077-10.547,10.859-10.856,1.992-.093,2.627-.115,7.7-.115s5.707.021,7.7.115c6.787.312,10.552,4.085,10.856,10.856.091,1.992.112,2.627.112,7.7S50.645,37.707,50.555,39.7Z"/></svg>