<?xml version="1.0" encoding="utf-8"?>
<!-- Generator: Adobe Illustrator 26.0.3, SVG Export Plug-In . SVG Version: 6.00 Build 0)  -->
<svg version="1.1" id="Layer_1" xmlns="http://www.w3.org/2000/svg" xmlns:xlink="http://www.w3.org/1999/xlink" x="0px" y="0px"
	 viewBox="0 0 529.4 102.4" style="enable-background:new 0 0 529.4 102.4;" xml:space="preserve">
<style type="text/css">
	.st0{fill:#FFFFFF;}
</style>
<g>
	<g>
		<path class="st0" d="M64.8,64.4c5.2,9.5,7.6,21.2,5.6,29.6c0.8-12.8-4.8-21.8-4.8-21.8s5.2,17.6,3.4,23.4
			c-0.3-0.3-0.7-0.8-0.7-0.8s-1.6,2.8-2.5,2.9c-0.8,0.1-3.6,0.8-3.6,0.8L61,97.1C58.3,86.4,52,76.8,45.9,69c-5,0.7-9.4,0.8-12.3,0.8
			c-0.3,0-0.6,0-0.8,0c-0.6,8.5-1,14.2-1,14.2s-1,1.6-2.3,3.9c-0.8,1.2-2.8,5.5-2.8,5.5s-1.6,0.6-2.6,1.8C23.8,95.6,23,98,23,98
			l-1.1-0.1l-1.6,2.6c0,0-1-0.7-1.2-0.6c-0.7,0.3-1.1,1.8-1.6,1.8C17,99.4,16.6,83.4,16,64.9c-4.3-2.6-8-6.9-9.9-13.4
			c-0.1-0.6-1-3.9-0.6-5.6c0.7,3.7,2.8,8.8,4.1,10.1C7,50.8,6.2,45.7,6.8,42.6c0.7,2.1,3.9,4.6,8.7,6.5c-0.4-9.1-0.8-18-1.2-25.5
			c-2.8,0.4-5.5,1-8.4,1.6C1.6,23.6-2.7,11.9,2.1,7.5c4.8-4.6,81.6-22.2,81.1,31C83.1,52.3,74.9,60,64.8,64.4z M34.8,21.3
			c0.1,1.4,0.1,3,0.1,4.8c-0.1,8.7-0.6,17.9-1.1,26.5c16.7-0.1,38-8.8,38.7-17.9C73.1,26.9,59.3,20.3,34.8,21.3z"/>
	</g>
	<g>
		<path class="st0" d="M141,92.9c-0.3,1-1.5,5.6-1.5,5.6l-1.2-0.7c-14.7-2.1-41.6,1.1-53,4.8c-9.6,3.2-12.4-10.1-8.4-19
			c14.5-8.4,58-4.7,62.3,2.8c0.3,0.3-0.7-0.1-0.7-0.1l1.9,2.3l-1.2,0.3C139,88.9,141.2,91.9,141,92.9z M76.2,63.8
			c6.5-16,13.2-35.7,16.3-60.7c11.3-1.6,17.6-1.2,20.8,1c5.4-0.1,10.5,1.6,11.4,8c1.2,8.8,5.4,33.6,16.3,62.5
			c-0.1,0-2.2-2.2-2.2-2.2l-1,1.5l-1.5-1l-1.2-0.7l-1.5,1.2c0,0-0.6-1.2-1.2-2.5c-0.4,1.1-2.2,5.4-2.2,5.4l-1.2-0.8
			c-14.2-4-30.3-2.2-42.1,0c-6.3,1.1-9-3.9-8.8-9.8C77.5,64.8,77,63.8,76.2,63.8z M116.4,56c-3-7-5.8-14-8.3-20.7
			c-2.5,6.3-5.2,12.3-8.1,17.9C105.7,53.5,111.5,54.6,116.4,56z"/>
	</g>
	<g>
		<path class="st0" d="M224.2,65.3c0,46.1-89.7,47.1-88.4-1.8c0.6-22.5,13.9-32.5,29.6-40.4c-11-0.6-20.2,1.9-22.5,0
			c-6.5-5.4-4.6-14.6-2.9-19.6c0,0,36.8,4.7,69.4-0.6c0,0,7.8,11,5.4,16c-0.1,0.4-0.6,0.8-1.1,1.1c0.6,3.4,0,6.8-3,6.6
			C174.9,26.5,146,51.4,146,63.4c0,22.3,67.6,17.6,67.6-1.6v-0.1c-2.9-9.8-21.6-11-27-11.2l-0.1-1.8l-2.6-1.1c0,0,3-0.6,7.7-1.1
			c-2.5-0.8-6.5-0.4-6.5-0.4l-4-0.7l9.2-0.8l-6.2-1.1l-3.9-1l5.4-1.2c0,0-3.9-1-6.2-2.2c4.3-1,24.9-5.1,39.3,13
			c2.6,3.4,4.1,6.3,4.7,8.7C223.9,62.1,224.2,63.6,224.2,65.3z"/>
	</g>
	<g>
		<path class="st0" d="M315.3,82.7l-1.4,5l-1.4,0.3l-0.6,3.4l-1.1,4.1l-1.8,0.3l-0.3,3.2c0,0-1.5-0.3-2.2,0.1
			c-0.4,0.1-0.3,1.4-0.7,1.5c-7.4-13.5-12.5-37.7-15.4-59.1c-4.7,14.7-11.7,34.6-16.1,46.4c-1,2.9-13.9,7.6-15.2-4.8
			c-3.3-7.6-8.7-21.2-14.5-35c-2.2,20.7-4.8,36.4-4.8,36.4l-1.8-0.3l-5.2,9.2l-3.6,1.1l-1.1,2.2c0,0-2.2-1.8-3.4-1.2
			c-1.1,0.6-1.9,3.6-2.8,3.6c1.6-16.9,4.6-72.7,2.6-93.3c0-0.1-0.1-0.3-0.3-0.4c0.1,0,0.3-0.1,0.3-0.1c-0.1-1.6-0.3-3-0.6-4.1
			c0,0,5.5-1.9,11.2-0.6c7.4-1.5,15.6-0.3,17.5,6.1c5.5,19,10.5,36.8,13.4,47.9c7.6-20.5,17.4-40.9,21.1-48.3
			c-0.1-1.2-0.1-2.2-0.1-3c5.5-3.4,19.3-5.4,22.5,1c1.8,3.7,1.2,9,1.4,21.1C311.3,55.7,315.3,82.7,315.3,82.7z"/>
	</g>
	<g>
		<path class="st0" d="M379.1,92.9c-0.3,1-1.5,5.6-1.5,5.6l-1.2-0.7c-14.7-2.1-41.6,1.1-53,4.8c-9.6,3.2-12.4-10.1-8.4-19
			c14.5-8.4,58-4.7,62.3,2.8c0.3,0.3-0.7-0.1-0.7-0.1l1.9,2.3l-1.2,0.3C377.2,88.9,379.4,91.9,379.1,92.9z M314.4,63.8
			c6.5-16,13.2-35.7,16.3-60.7c11.3-1.6,17.6-1.2,20.8,1c5.4-0.1,10.5,1.6,11.4,8c1.2,8.8,5.4,33.6,16.3,62.5
			c-0.1,0-2.2-2.2-2.2-2.2l-1,1.5l-1.5-1l-1.2-0.7l-1.5,1.2c0,0-0.6-1.2-1.2-2.5c-0.4,1.1-2.2,5.4-2.2,5.4l-1.2-0.8
			c-14.2-4-30.3-2.2-42.1,0c-6.3,1.1-9-3.9-8.8-9.8C315.6,64.8,315.2,63.8,314.4,63.8z M354.6,56c-3-7-5.8-14-8.3-20.7
			c-2.5,6.3-5.2,12.3-8.1,17.9C343.9,53.5,349.6,54.6,354.6,56z"/>
	</g>
	<g>
		<path class="st0" d="M431.3,64.4c5.2,9.5,7.6,21.2,5.6,29.6c0.8-12.8-4.8-21.8-4.8-21.8s5.2,17.6,3.4,23.4
			c-0.3-0.3-0.7-0.8-0.7-0.8s-1.6,2.8-2.5,2.9c-0.8,0.1-3.6,0.8-3.6,0.8l-1.2-1.4c-2.8-10.8-9.1-20.4-15.2-28.1
			c-5,0.7-9.4,0.8-12.3,0.8c-0.3,0-0.6,0-0.8,0c-0.6,8.5-1,14.2-1,14.2s-1,1.6-2.3,3.9c-0.8,1.2-2.8,5.5-2.8,5.5s-1.6,0.6-2.6,1.8
			c-0.3,0.4-1.1,2.8-1.1,2.8l-1.1-0.1l-1.6,2.6c0,0-1-0.7-1.2-0.6c-0.7,0.3-1.1,1.8-1.6,1.8c-0.4-2.3-0.8-18.3-1.4-36.8
			c-4.3-2.6-8-6.9-9.9-13.4c-0.1-0.6-1-3.9-0.6-5.6c0.7,3.7,2.8,8.8,4.1,10.1c-2.6-5.2-3.4-10.3-2.8-13.4c0.7,2.1,3.9,4.6,8.7,6.5
			c-0.4-9.1-0.8-18-1.2-25.5c-2.8,0.4-5.5,1-8.4,1.6c-4.4-1.6-8.7-13.4-3.9-17.8c4.8-4.6,81.6-22.2,81.1,31
			C449.6,52.3,441.4,60,431.3,64.4z M401.3,21.3c0.1,1.4,0.1,3,0.1,4.8c-0.1,8.7-0.6,17.9-1.1,26.5c16.7-0.1,38-8.8,38.7-17.9
			C439.6,26.9,425.8,20.3,401.3,21.3z"/>
	</g>
	<g>
		<path class="st0" d="M529.4,56c-0.3,33.3-39.8,38.3-52.5,38.3c-1,0-2.2-0.1-3.7-0.3l-0.8,1.8l-2.5-0.1l-1.4,3.3l-1.5-0.4
			c0,0-0.8,1.6-1.2,1.6c-0.1-1-0.3-3.9-0.4-8c-9.1-3.2-19-11.2-19-30.3c0,0,2.2-4.6,2.2,0.1c0,3.4,6.6,8.4,16.3,10.9
			c-0.4-16.9-1.1-37.6-2.5-49.5c-7.8-0.3-16.1,0.6-24.8,2.6c-4.7-1.8-9.2-15.2-4.1-20.2C438.6,0.6,529.7-5.2,529.4,56z M477.3,74.3
			c0-7.6,0-16.3,0-16.3l-1.2,16.3c0.1,0,0.4,0.1,0.7,0.1C476.9,74.4,477.2,74.3,477.3,74.3z M481.5,25.9
			c-0.1,15.2-1.1,37.1-1.6,48.3c17.1-1.4,37.5-13,38.2-22.7C518.5,44,503.8,31.3,481.5,25.9z"/>
	</g>
</g>
</svg>
