<svg xmlns="http://www.w3.org/2000/svg" width="64" height="64" viewBox="0 0 64 64"><path d="M64,32A32,32,0,1,1,32,0,32,32,0,0,1,64,32ZM32,13.333A18.667,18.667,0,1,0,50.667,32,18.667,18.667,0,0,0,32,13.333Zm8.56,26.923a1.163,1.163,0,0,1-1.6.389c-4.381-2.68-9.9-3.285-16.4-1.8a1.164,1.164,0,0,1-.517-2.269c7.109-1.624,13.211-.925,18.131,2.08a1.165,1.165,0,0,1,.384,1.6Zm2.285-5.083a1.456,1.456,0,0,1-2,.48c-5.016-3.083-12.667-3.976-18.6-2.176a1.455,1.455,0,1,1-.845-2.784c6.779-2.056,15.208-1.061,20.968,2.48a1.453,1.453,0,0,1,.48,2Zm.2-5.291c-6.019-3.573-15.944-3.9-21.688-2.16a1.746,1.746,0,0,1-1.013-3.341c6.595-2,17.555-1.613,24.483,2.5a1.746,1.746,0,0,1-1.781,3Z" fill-rule="evenodd"/></svg>