<svg xmlns="http://www.w3.org/2000/svg" width="64" height="64" viewBox="0 0 64 64"><path d="M32,0A32,32,0,1,0,64,32,32,32,0,0,0,32,0ZM48.176,25.72C48.664,36.493,40.629,48.5,26.405,48.5a21.671,21.671,0,0,1-11.739-3.443,15.409,15.409,0,0,0,11.339-3.171,7.677,7.677,0,0,1-7.157-5.32,7.682,7.682,0,0,0,3.461-.131,7.671,7.671,0,0,1-6.144-7.608,7.641,7.641,0,0,0,3.469.957,7.671,7.671,0,0,1-2.371-10.227,21.741,21.741,0,0,0,15.787,8A7.665,7.665,0,0,1,46.1,20.579a15.278,15.278,0,0,0,4.864-1.859A7.691,7.691,0,0,1,47.6,22.957,15.28,15.28,0,0,0,52,21.749,15.374,15.374,0,0,1,48.176,25.72Z"/></svg>